# xmcd
#
# Track frame offsets:
#	170
#	28620
#	51282
#	69970
#	91715
#	113707
#	130542
#	151775
#
# Disc length: 2317 seconds
#
# Revision: 1
# Processed by: cddbd v1.5.1PL0 Copyright (c) Steve Scherf et al.
# Submitted via: audiograbber 1.83.01
#
DISCID=54090b08
DTITLE=Little Milton - Me For You, You For Me
DYEAR=1993
DGENRE=Blues
TTITLE0=Me For You
TTITLE1=Sugar Dumpling
TTITLE2=Angel Of Mercy
TTITLE3=Loving You
TTITLE4=Just One Step
TTITLE5=My Thing Is You
TTITLE6=4:59 AM
TTITLE7=Somebody Done Changed
EXTD=1993 Rhino Inc.\nDistributed by Collectables Records
EXTT0=
EXTT1=
EXTT2=
EXTT3=
EXTT4=
EXTT5=
EXTT6=
EXTT7=
PLAYORDER=
